<svg xmlns="http://www.w3.org/2000/svg" viewBox="0 0 1000 202" width="1000" height="202">
  <g fill-rule="evenodd">
    <path fill="#e0001a" d="M0 0h202v202H0z"/>
    <path fill="#e0001a" d="M266 0h202v202H266z"/>
    <path fill="#e0001a" d="M532 0h202v202H532z"/>
    <g fill="#fff">
      <path d="M101 47.7c-27.6 0-48.7 9.7-63.5 29V49.5H0v129.5h38V152c14.8 19.3 35.9 29 63.5 29 44.7 0 79.2-30.8 79.2-76.8S145.7 47.7 101 47.7zm0 126c-31.5 0-53.8-21-53.8-51.2s22.3-51.2 53.8-51.2 53.8 21 53.8 51.2-22.3 51.2-53.8 51.2zM367 47.7c-27.6 0-48.7 9.7-63.5 29V49.5H265v129.5h38V152c14.8 19.3 35.9 29 63.5 29 44.7 0 79.2-30.8 79.2-76.8S411.7 47.7 367 47.7zm0 126c-31.5 0-53.8-21-53.8-51.2s22.3-51.2 53.8-51.2 53.8 21 53.8 51.2-22.3 51.2-53.8 51.2zM633 47.7c-45 0-79.7 30.5-79.7 76.8 0 49.1 35.8 76.8 79.7 76.8s79.7-30.5 79.7-76.8c0-49.1-35.8-76.8-79.7-76.8zm0 126c-31.5 0-53.8-20.7-53.8-51.2s22.3-51.2 53.8-51.2 53.8 20.7 53.8 51.2-22.3 51.2-53.8 51.2z"/>
    </g>
    <path d="m817.4 49.5-31.5 129.5h-36.8L717.6 49.5h40.8l16.7 72.8 17.2-72.8z"/>
  </g>
</svg>
