<svg xmlns="http://www.w3.org/2000/svg" xmlns:xlink="http://www.w3.org/1999/xlink" viewBox="0 0 512 512" version="1.1">
  <g id="surface1">
    <path style="fill:#34D1D1;" d="M 256 0 C 114.613281 0 0 114.613281 0 256 C 0 397.386719 114.613281 512 256 512 C 397.386719 512 512 397.386719 512 256 C 512 114.613281 397.386719 0 256 0 Z "/>
    <path style="fill:#20B2B2;" d="M 256 0 L 256 512 C 397.386719 512 512 397.386719 512 256 C 512 114.613281 397.386719 0 256 0 Z "/>
    <path style="fill:#169393;" d="M 206.015625 114.25 C 191.929688 114.25 180.421875 125.757812 180.421875 129.84375 L 180.421875 186.785156 C 180.421875 200.871094 191.929688 202.359375 206.015625 202.359375 L 217.910156 202.359375 C 231.996094 202.359375 243.503906 190.871094 243.503906 186.785156 L 243.503906 129.84375 C 243.503906 115.757812 231.996094 114.25 217.910156 114.25 Z "/>
    <path style="fill:#169393;" d="M 148.214844 199.15625 C 134.128906 199.15625 119.828125 213.457031 119.828125 227.542969 L 119.828125 284.484375 C 119.828125 298.570312 134.128906 300.058594 148.214844 300.058594 L 206.484375 300.058594 C 220.570312 300.058594 232.078125 288.570312 232.078125 284.484375 L 232.078125 227.542969 C 232.078125 213.457031 220.570312 199.15625 206.484375 199.15625 Z "/>
    <path style="fill:#0D7B7B;" d="M 284.46875 283.875 C 270.382812 283.875 258.875 295.382812 258.875 309.46875 L 258.875 366.410156 C 258.875 380.496094 270.382812 391.984375 284.46875 391.984375 L 296.363281 391.984375 C 310.449219 391.984375 321.957031 380.496094 321.957031 366.410156 L 321.957031 309.46875 C 321.957031 295.382812 310.449219 283.875 296.363281 283.875 Z "/>
    <path style="fill:#0D7B7B;" d="M 226.667969 368.578125 C 212.582031 368.578125 198.28125 382.878906 198.28125 396.964844 L 198.28125 453.90625 C 198.28125 467.992188 212.582031 469.480469 226.667969 469.480469 L 284.9375 469.480469 C 299.023438 469.480469 310.53125 457.992188 310.53125 453.90625 L 310.53125 396.964844 C 310.53125 382.878906 299.023438 368.578125 284.9375 368.578125 Z "/>
    <path style="fill:#FFFFFF;" d="M 284.484375 114.25 C 270.398438 114.25 258.890625 125.757812 258.890625 142.636719 C 258.890625 159.515625 270.398438 171.023438 284.484375 171.023438 L 333.640625 171.023438 C 347.726562 171.023438 359.234375 159.515625 359.234375 142.636719 C 359.234375 125.757812 347.726562 114.25 333.640625 114.25 Z M 284.484375 199.15625 C 270.398438 199.15625 258.890625 210.664062 258.890625 227.542969 C 258.890625 244.421875 270.398438 255.929688 284.484375 255.929688 L 333.640625 255.929688 C 347.726562 255.929688 359.234375 244.421875 359.234375 227.542969 C 359.234375 210.664062 347.726562 199.15625 333.640625 199.15625 Z "/>
  </g>
</svg>
