<svg version="1.1" id="Layer_1" xmlns="http://www.w3.org/2000/svg" xmlns:xlink="http://www.w3.org/1999/xlink" x="0px" y="0px"
	 viewBox="0 0 512 512" style="enable-background:new 0 0 512 512;" xml:space="preserve">
<style type="text/css">
	.st0{fill:#E60023;}
	.st1{fill:#FFFFFF;}
</style>
<circle class="st0" cx="256" cy="256" r="256"/>
<path class="st1" d="M256,152c-62.8,0-101.8,38.2-101.8,88.9c0,27.1,12.5,58.1,38.8,67.3c4.6,1.6,6.3,0.2,7-4.2
	c0.9-5.1,3-12.2,4.3-17.1c0.5-2,0.2-3.2-1.2-5.1c-6.1-8-10.2-17.4-10.2-30.8c0-26.1,19.2-50.5,53.8-50.5c29.5,0,46.7,21.1,46.7,46
	c0,30.8-15.9,53.2-38.2,53.2c-15,0-26-12.7-22.6-28c4.1-18.1,11.8-36.9,11.8-49.8c0-10.8-5.9-20.1-18.1-20.1c-14.3,0-25.5,15-25.5,33.5
	c0,12.7,4.3,21.3,4.3,21.3s-15.2,64.2-17.8,75.3c-4.4,18.7,2.2,41.9,2.8,44.1c0.4,1.4,3.2,2,4.5-0.8c0.8-1.7,5.5-21.8,7.5-29.8
	c0.5-2.2,2.9-11,2.9-11c5.9,10.8,23.3,20.1,43.2,20.1c56.5,0,94.9-47.7,94.9-100C360,188.4,316.1,152,256,152z"/>
</svg>