<svg xmlns="http://www.w3.org/2000/svg" fill="none" viewBox="0 0 512 264">
  <g clip-path="url(#a)">
    <path fill="#00A4A6" d="M128.84 41.34V0h-33.4v131.79h33.4V96.48c26.54-3.1 46.88-25.29 46.88-52.57 0-27.27-20.34-49.47-46.88-52.57Z"/>
    <path fill="#FFC90E" d="M217.43 41.34V0h-33.4v131.79h33.4V96.48c26.54-3.1 46.88-25.29 46.88-52.57 0-27.27-20.34-49.47-46.88-52.57Z"/>
    <path fill="#00A4A6" d="M306.01 41.34V0h-33.4v131.79h33.4V96.48c26.54-3.1 46.88-25.29 46.88-52.57 0-27.27-20.34-49.47-46.88-52.57Z"/>
    <path fill="#F15A22" d="M394.59 41.34V0h-33.4v131.79h33.4V96.48c26.54-3.1 46.88-25.29 46.88-52.57 0-27.27-20.34-49.47-46.88-52.57Z"/>
    <path fill="#00A4A6" d="M95.44 142.15v43.99H0V54.36h33.4v87.79h62.04Zm122-56.03v43.99h-95.44V54.36h33.4v87.79h62.04Zm122-56.03v43.99h-95.44V54.36h33.4v87.79h62.04Zm122-56.03v43.99H363.9V54.36h33.39v87.79h62.05Z"/>
    <path fill="#FFC90E" d="M217.43 30.08v43.99h-95.44V0h33.4v87.79h62.04Zm122-56.03v43.99h-95.44V0h33.4v87.79h62.04Z"/>
    <path fill="#F15A22" d="m339.42 142.15 11.14 11.13 11.13-11.13-11.13-11.14-11.14 11.14Z"/>
  </g>
  <g fill="#00A4A6">
    <path d="M128.84 222.66V181.32h-33.4v131.79h33.4v-43.96c26.54-3.1 46.88-25.29 46.88-52.58 0-27.27-20.34-49.46-46.88-52.57Z"/>
    <path d="M95.44 142.15v43.99H0V54.36h33.4v87.79h62.04Z"/>
  </g>
  <g fill="#FFC90E">
    <path d="M217.43 222.66V181.32h-33.4v131.79h33.4v-43.96c26.54-3.1 46.88-25.29 46.88-52.58 0-27.27-20.34-49.46-46.88-52.57Z"/>
    <path d="M217.43 30.08v43.99h-95.44V0h33.4v87.79h62.04Z"/>
  </g>
  <g fill="#00A4A6">
    <path d="M306.01 222.66V181.32h-33.4v131.79h33.4v-43.96c26.54-3.1 46.88-25.29 46.88-52.58 0-27.27-20.34-49.46-46.88-52.57Z"/>
    <path d="M339.42 86.12v43.99h-95.44V54.36h33.4v87.79h62.04Z"/>
  </g>
  <path fill="#F15A22" d="M394.59 222.66V181.32h-33.4v131.79h33.4v-43.96c26.54-3.1 46.88-25.29 46.88-52.58 0-27.27-20.34-49.46-46.88-52.57Zm68.05-80.48v43.99H363.9V54.36h33.39v87.79h62.05Zm-22.63 8.3-11.13-11.13-11.14 11.13 11.14 11.14 11.13-11.14Z"/>
  <defs>
    <clipPath id="a">
      <path fill="#fff" d="M0 0h512v263.11H0z"/>
    </clipPath>
  </defs>
</svg>
